<svg xmlns="http://www.w3.org/2000/svg" xmlns:xlink="http://www.w3.org/1999/xlink" version="1.1" x="0px" y="0px" style="enable-background:new 0 0 1024 768;" xml:space="preserve" viewBox="17.21 164.15 995.79 369.5">
<style type="text/css">
	.st0{fill:url(#SVGID_1_);}
	.st1{fill:url(#SVGID_00000107547062458780058030000011929074680824844165_);}
	.st2{fill:#0078D4;}
	.st3{fill:url(#SVGID_00000049903877625962985540000005303870519330123952_);}
	.st4{fill:url(#SVGID_00000111151759936507654930000017236622567837214614_);}
	.st5{fill:#20A0E1;}
</style><style class="darkreader darkreader--sync" media="screen"/>
<g id="Layer_3">
	<g>
		<linearGradient id="SVGID_1_" gradientUnits="userSpaceOnUse" x1="427" y1="360.8068" x2="558" y2="360.8068">
			<stop offset="0" style="stop-color: rgb(11, 91, 166); --darkreader-inline-stopcolor: #6cb8f5;" data-darkreader-inline-stopcolor=""/>
			<stop offset="0.141" style="stop-color: rgb(14, 97, 172); --darkreader-inline-stopcolor: #69b6f3;" data-darkreader-inline-stopcolor=""/>
			<stop offset="0.3376" style="stop-color: rgb(23, 116, 190); --darkreader-inline-stopcolor: #60b0ec;" data-darkreader-inline-stopcolor=""/>
			<stop offset="0.5659" style="stop-color: rgb(38, 145, 219); --darkreader-inline-stopcolor: #3b9cdf;" data-darkreader-inline-stopcolor=""/>
			<stop offset="0.5993" style="stop-color: rgb(41, 150, 224); --darkreader-inline-stopcolor: #3da0e3;" data-darkreader-inline-stopcolor=""/>
			<stop offset="0.9944" style="stop-color: rgb(32, 160, 225); --darkreader-inline-stopcolor: #36a9e4;" data-darkreader-inline-stopcolor=""/>
		</linearGradient>
		<path class="st0" d="M558,376.11h-51.78v57.5h-27.17v-57.5H427V345.8h52.05V288h27.17v57.8H558V376.11z"/>
	</g>
</g>
<g id="Azure">
	<g>
		
			<linearGradient id="SVGID_00000015328201780241089800000006412675512766726273_" gradientUnits="userSpaceOnUse" x1="-1121.7059" y1="987.5891" x2="-1193.5814" y2="1199.9275" gradientTransform="matrix(1.5625 0 0 1.5625 1931.125 -1353.4375)">
			<stop offset="0" style="stop-color: rgb(17, 74, 139); --darkreader-inline-stopcolor: #7ebbef;" data-darkreader-inline-stopcolor=""/>
			<stop offset="1" style="stop-color: rgb(6, 105, 188); --darkreader-inline-stopcolor: #5db6fa;" data-darkreader-inline-stopcolor=""/>
		</linearGradient>
		<path style="fill:url(#SVGID_00000015328201780241089800000006412675512766726273_);" d="M139.05,164.15h108.14L134.93,496.77    c-2.37,7.01-8.94,11.73-16.33,11.73H34.43c-9.51,0-17.22-7.71-17.22-17.21c0-1.87,0.3-3.73,0.9-5.5l104.59-309.9    C125.07,168.87,131.65,164.15,139.05,164.15L139.05,164.15z"/>
		<path class="st2" d="M296.19,387.25H124.71c-4.38,0-7.94,3.54-7.95,7.93c0,2.2,0.91,4.31,2.53,5.81l110.19,102.85    c3.21,2.99,7.43,4.66,11.82,4.66h97.1L296.19,387.25z"/>
		
			<linearGradient id="SVGID_00000052083518002377514570000001586446973240673977_" gradientUnits="userSpaceOnUse" x1="-1099.254" y1="1086.5414" x2="-1115.88" y2="1092.1631" gradientTransform="matrix(1.5625 0 0 1.5625 1931.125 -1353.4375)">
			<stop offset="0" style="stop-color: rgb(0, 0, 0); stop-opacity: 0.3; --darkreader-inline-stopcolor: #e8e6e3;" data-darkreader-inline-stopcolor=""/>
			<stop offset="0.071" style="stop-color: rgb(0, 0, 0); stop-opacity: 0.2; --darkreader-inline-stopcolor: #e8e6e3;" data-darkreader-inline-stopcolor=""/>
			<stop offset="0.321" style="stop-color: rgb(0, 0, 0); stop-opacity: 0.1; --darkreader-inline-stopcolor: #e8e6e3;" data-darkreader-inline-stopcolor=""/>
			<stop offset="0.623" style="stop-color: rgb(0, 0, 0); stop-opacity: 0.05; --darkreader-inline-stopcolor: #e8e6e3;" data-darkreader-inline-stopcolor=""/>
			<stop offset="1" style="stop-color: rgb(0, 0, 0); stop-opacity: 0; --darkreader-inline-stopcolor: #e8e6e3;" data-darkreader-inline-stopcolor=""/>
		</linearGradient>
		<path style="fill:url(#SVGID_00000052083518002377514570000001586446973240673977_);" d="M139.05,164.15    c-7.49-0.03-14.12,4.82-16.38,11.96L18.25,485.5c-3.21,8.94,1.44,18.78,10.38,21.99c1.88,0.67,3.86,1.02,5.85,1.01h86.33    c6.55-1.17,11.96-5.77,14.16-12.04l20.82-61.37l74.38,69.38c3.12,2.58,7.03,4,11.07,4.04h96.74l-42.43-121.25l-123.69,0.03    l75.7-223.12H139.05z"/>
		
			<linearGradient id="SVGID_00000000202701961284804740000001109766554810799016_" gradientUnits="userSpaceOnUse" x1="-1107.8804" y1="981.2023" x2="-1028.9823" y2="1191.401" gradientTransform="matrix(1.5625 0 0 1.5625 1931.125 -1353.4375)">
			<stop offset="0" style="stop-color: rgb(60, 203, 244); --darkreader-inline-stopcolor: #46cef5;" data-darkreader-inline-stopcolor=""/>
			<stop offset="1" style="stop-color: rgb(40, 146, 223); --darkreader-inline-stopcolor: #3c9de2;" data-darkreader-inline-stopcolor=""/>
		</linearGradient>
		<path style="fill:url(#SVGID_00000000202701961284804740000001109766554810799016_);" d="M277.17,175.87    c-2.36-7-8.93-11.71-16.31-11.71H140.33c7.39,0,13.95,4.71,16.31,11.71l104.59,309.91c3.04,9.01-1.8,18.78-10.81,21.82    c-1.77,0.6-3.63,0.9-5.51,0.9h120.52c9.51,0,17.22-7.71,17.21-17.22c0-1.87-0.31-3.73-0.9-5.5L277.17,175.87z"/>
	</g>
</g>
<g id="Telegram">
	<path class="st5" d="M1011.83,220.83l-61.93,292.05c-4.67,20.61-16.86,25.74-34.17,16.03l-94.36-69.53l-45.53,43.79   c-5.04,5.04-9.25,9.25-18.96,9.25l6.78-96.1L938.55,258.3c7.6-6.78-1.65-10.53-11.82-3.76L710.54,390.67l-93.07-29.13   c-20.25-6.32-20.61-20.25,4.21-29.96l364.05-140.25C1002.58,185.01,1017.33,195.09,1011.83,220.83z"/>
</g>
</svg>